<?xml version="1.0" standalone="no"?>
<!DOCTYPE svg PUBLIC "-//W3C//DTD SVG 20010904//EN"
 "http://www.w3.org/TR/2001/REC-SVG-20010904/DTD/svg10.dtd">
<svg version="1.0" xmlns="http://www.w3.org/2000/svg"
 width="460.000000pt" height="460.000000pt" viewBox="0 0 460.000000 460.000000"
 preserveAspectRatio="xMidYMid meet">
<metadata>
Created by potrace 1.16, written by Peter Selinger 2001-2019
</metadata>
<g transform="translate(0.000000,460.000000) scale(0.100000,-0.100000)"
fill="#000000" stroke="none">
<path d="M1890 4384 c0 -4 8 -13 18 -21 13 -11 11 -11 -14 1 -40 19 -195 9
-202 -14 -2 -6 -21 -10 -43 -10 -21 0 -39 -4 -39 -9 0 -5 -18 -8 -40 -7 -22 2
-40 -1 -40 -5 0 -5 -10 -9 -22 -9 -13 0 -32 -8 -43 -17 -15 -12 -16 -14 -3
-10 10 3 19 -1 22 -10 5 -12 -1 -14 -34 -9 -37 5 -55 -6 -27 -17 6 -3 -3 -6
-20 -6 -18 -1 -33 -6 -33 -12 0 -5 -4 -8 -8 -5 -5 3 -36 -8 -70 -25 -34 -16
-65 -29 -69 -29 -19 -1 -86 -39 -70 -40 10 0 27 5 39 11 43 23 25 0 -29 -37
-108 -74 -145 -108 -136 -130 5 -13 2 -15 -14 -10 -17 5 -23 1 -31 -23 -11
-30 -52 -63 -52 -41 0 6 -5 8 -11 4 -8 -5 -8 -9 1 -14 9 -6 9 -13 1 -29 -10
-17 -9 -21 4 -21 11 0 14 -6 9 -25 -4 -16 -2 -25 6 -25 6 0 8 5 5 10 -3 6 -2
10 3 10 20 0 22 -34 4 -54 -26 -29 -54 -77 -49 -82 8 -8 52 42 69 79 10 21 25
40 33 43 8 4 15 12 15 18 0 7 39 53 86 102 47 49 90 96 95 105 6 12 20 16 48
14 22 -1 39 1 38 5 -1 5 3 8 8 7 6 0 9 -9 7 -20 -2 -10 0 -17 5 -15 95 44 129
58 146 58 34 0 190 30 232 45 51 19 85 25 160 30 37 3 64 10 71 19 6 9 15 11
24 6 9 -6 29 0 57 16 43 26 144 66 150 60 4 -3 -53 -32 -80 -40 -11 -4 -15
-11 -11 -17 4 -7 3 -10 -2 -6 -5 3 -20 -1 -34 -8 -24 -13 -23 -13 15 -10 22 2
42 0 45 -5 4 -6 33 -6 75 -1 73 9 99 7 49 -4 -16 -4 -38 -11 -49 -16 -12 -6
-13 -8 -3 -5 10 3 20 2 22 -3 3 -4 19 -6 36 -3 18 3 30 0 30 -7 0 -8 5 -9 19
-1 11 5 28 10 37 10 17 0 17 -1 0 -13 -17 -13 -15 -16 25 -40 24 -14 61 -42
82 -61 29 -27 47 -36 75 -37 20 0 31 -3 25 -6 -16 -6 -17 -23 -2 -23 6 0 26
-12 44 -26 19 -14 39 -23 45 -19 5 3 10 1 10 -5 0 -6 5 -8 10 -5 6 3 10 0 10
-7 0 -7 14 -22 30 -33 17 -11 39 -33 50 -50 11 -16 37 -54 59 -83 21 -30 47
-71 57 -93 11 -21 23 -39 27 -39 5 0 6 -4 3 -9 -7 -10 22 -37 30 -28 6 5 7 72
2 115 -2 12 -9 26 -16 31 -8 5 -13 10 -12 12 4 10 -21 58 -54 104 -20 27 -36
55 -36 61 0 5 -16 27 -35 48 -24 26 -35 48 -35 69 0 17 -3 28 -6 24 -9 -9 -43
35 -37 49 2 6 -3 17 -12 24 -8 7 -15 19 -15 27 0 10 -6 13 -17 9 -10 -4 -15
-4 -11 -1 8 9 -64 81 -90 89 -11 4 -22 17 -24 29 -2 13 -16 29 -37 39 -19 9
-37 22 -41 27 -8 14 -70 26 -70 14 0 -5 5 -14 12 -21 16 -16 -48 -4 -77 14
-11 7 -50 18 -87 24 -37 5 -75 13 -84 17 -13 5 -15 3 -9 -7 5 -8 3 -11 -6 -8
-8 3 -13 10 -12 15 1 5 -7 9 -17 9 -10 0 -17 -4 -14 -8 2 -4 -27 2 -66 13 -78
21 -80 22 -80 13z"/>
<path d="M2884 3492 c8 -21 19 -65 26 -98 6 -32 25 -97 41 -144 29 -81 31 -95
36 -282 5 -189 5 -198 -13 -198 -14 0 -15 3 -6 9 10 6 10 10 -3 21 -8 7 -15
18 -15 24 0 6 5 4 10 -4 5 -8 10 -10 10 -4 0 6 -14 21 -30 34 -20 16 -27 26
-19 31 19 11 -19 26 -86 34 -33 4 -65 12 -72 17 -6 5 -24 11 -40 13 -15 2 -30
5 -33 6 -15 6 -70 3 -70 -5 0 -5 -8 1 -19 12 -17 20 -48 32 -38 14 8 -12 -67
-10 -75 2 -5 7 -8 6 -8 -4 0 -13 -2 -13 -9 -1 -8 12 -12 12 -25 2 -8 -7 -20
-10 -25 -7 -5 4 -15 -2 -21 -11 -10 -16 -11 -15 -6 5 4 22 3 23 -13 8 -23 -21
-41 -20 -42 2 0 9 -3 12 -5 6 -2 -6 -17 -9 -33 -6 -16 2 -37 -1 -47 -6 -14 -8
-21 -6 -29 5 -10 13 -15 13 -33 2 -12 -8 -25 -22 -28 -31 -3 -10 -11 -15 -20
-11 -21 8 -46 -28 -31 -46 6 -7 12 -42 13 -77 l1 -64 -41 1 c-47 1 -119 20
-119 32 -1 23 29 77 42 78 11 0 12 2 3 6 -9 3 -10 9 -2 18 6 7 8 21 6 31 -9
42 -19 64 -28 64 -6 0 -7 11 -3 27 5 23 4 25 -9 14 -13 -11 -16 -11 -16 3 0 9
-4 16 -10 16 -5 0 -10 -5 -10 -11 0 -5 -4 -7 -10 -4 -5 3 -10 0 -10 -7 -1 -7
-12 1 -25 17 -16 19 -25 25 -26 15 0 -10 -3 -8 -9 5 l-9 20 0 -20 c-1 -15 -4
-16 -10 -7 -9 14 -31 13 -44 -3 -5 -5 -5 1 -2 14 6 19 4 23 -8 18 -11 -4 -14
-2 -10 9 3 7 0 14 -6 14 -6 0 -11 -7 -11 -15 0 -19 -5 -19 -35 1 -13 9 -28 13
-34 10 -5 -3 -12 1 -15 10 -4 10 -2 13 6 8 7 -4 8 -3 4 5 -4 6 -16 9 -26 6
-10 -3 -21 -1 -25 5 -10 16 -35 12 -29 -5 8 -20 -5 -19 -62 5 -26 11 -55 18
-65 15 -10 -4 -35 -1 -56 4 -23 7 -39 7 -41 1 -2 -5 -9 -7 -17 -4 -7 3 -16 0
-20 -5 -3 -6 -12 -8 -18 -5 -7 4 -7 2 1 -7 7 -8 16 -14 20 -15 4 0 18 -5 30
-10 21 -9 22 -11 8 -23 -10 -9 -26 -11 -43 -6 -16 3 -39 7 -52 7 -19 0 -21 2
-10 10 15 11 14 10 -36 -7 -17 -6 -18 -5 -5 5 12 10 10 11 -10 6 -14 -4 -37
-9 -52 -12 -15 -4 -33 -13 -40 -22 -11 -13 -10 -15 9 -10 13 4 25 3 28 -2 7
-11 -20 -20 -44 -13 -12 3 -21 1 -21 -5 0 -6 -6 -12 -12 -15 -7 -2 -3 -2 10 0
33 5 25 -29 -8 -38 -14 -4 -20 -8 -15 -9 6 -1 -3 -6 -20 -10 -25 -6 -20 -8 25
-8 30 0 49 2 43 5 -22 8 -14 23 13 23 23 0 25 2 13 16 -12 15 -11 16 11 9 14
-4 29 -13 33 -19 6 -7 7 -4 3 7 -4 13 0 20 13 24 24 6 17 31 -13 43 -14 6 -16
9 -5 9 17 1 89 -58 73 -60 -5 -1 -20 -1 -34 0 -23 1 -23 1 -6 -10 13 -8 25 -8
43 0 27 12 102 -2 114 -21 4 -6 26 -10 49 -10 34 1 41 -2 36 -15 -5 -12 -1
-14 15 -10 12 3 28 0 35 -8 11 -11 9 -14 -13 -18 -15 -3 -54 -1 -87 4 -58 8
-245 12 -458 10 -88 -1 -99 -3 -126 -26 -21 -18 -42 -25 -71 -25 -30 0 -41 -4
-41 -15 0 -8 -6 -15 -14 -15 -18 0 -10 77 10 101 8 8 14 21 14 27 0 7 5 12 11
12 6 0 8 7 5 16 -4 10 -2 13 6 8 8 -5 9 -2 5 10 -5 12 1 20 18 28 14 6 28 23
32 37 3 14 17 43 30 63 29 47 29 51 1 43 -18 -5 -15 -1 9 17 18 12 33 32 33
43 0 15 -3 16 -12 7 -21 -21 -27 -13 -12 16 21 42 18 59 -7 36 l-21 -19 7 43
c3 24 1 50 -6 63 -6 13 -7 19 -1 15 6 -3 13 -2 16 3 4 5 -6 8 -21 6 -16 -2
-34 2 -40 7 -17 14 -44 2 -37 -16 4 -11 0 -13 -15 -9 -16 4 -21 1 -21 -16 0
-23 -15 -29 -23 -8 -3 6 -6 -1 -6 -18 -1 -20 -4 -26 -10 -17 -6 10 -10 9 -14
-7 -3 -12 -1 -19 4 -15 5 3 9 2 9 -3 0 -4 -14 -14 -31 -22 -22 -9 -29 -19 -26
-31 3 -10 -11 -62 -30 -117 -19 -54 -39 -114 -44 -133 -5 -19 -19 -61 -31 -93
-17 -47 -18 -61 -8 -67 7 -4 11 -19 8 -33 -3 -16 -1 -24 6 -21 7 3 12 -5 13
-17 1 -12 9 -29 17 -38 9 -10 14 -20 11 -23 -3 -2 6 -11 20 -18 22 -12 25 -20
24 -59 -1 -25 -8 -57 -14 -71 -7 -14 -11 -39 -8 -55 4 -26 3 -27 -7 -12 -7 11
-10 29 -7 42 2 14 -1 23 -7 22 -5 -1 -15 8 -20 20 -6 12 -26 29 -46 38 -19 8
-48 23 -63 31 -35 20 -92 11 -107 -16 -15 -27 -12 -101 6 -181 16 -69 31 -87
41 -49 5 19 14 24 39 21 11 -1 28 28 39 66 6 23 24 26 37 8 5 -6 8 -5 8 2 0 8
10 4 26 -10 14 -12 31 -22 37 -22 14 0 17 -35 4 -52 -4 -6 -21 -14 -36 -18
-19 -4 -33 -17 -44 -41 -21 -44 -21 -57 1 -119 26 -71 44 -65 49 15 3 47 10
71 24 85 19 19 19 19 20 -15 5 -100 3 -150 -3 -150 -17 0 -7 -38 11 -43 24 -6
29 13 31 128 2 92 6 154 13 243 5 63 33 132 56 140 6 2 37 -23 69 -56 76 -80
77 -82 92 -128 17 -52 25 -61 79 -89 25 -13 53 -33 61 -44 8 -12 20 -21 26
-21 13 0 13 -24 1 -36 -12 -12 -8 -52 7 -67 8 -8 46 -17 85 -21 39 -4 71 -11
71 -16 0 -5 15 -11 32 -15 62 -12 107 -38 103 -60 -2 -11 -4 -26 -4 -32 -1 -7
-8 -13 -16 -13 -9 0 -29 -10 -45 -21 -16 -12 -36 -19 -44 -16 -9 4 -16 3 -16
-2 0 -5 -19 -11 -42 -15 -60 -9 -109 -28 -130 -49 -10 -9 -30 -17 -44 -17 -14
0 -32 -6 -40 -14 -7 -8 -18 -16 -24 -18 -5 -1 -16 -37 -24 -78 -12 -64 -12
-77 0 -91 8 -8 14 -29 14 -45 0 -23 -2 -26 -11 -14 -8 12 -9 11 -7 -5 3 -14
11 -20 30 -20 19 1 24 -4 21 -15 -4 -13 -4 -13 6 0 6 8 13 35 17 60 3 25 11
53 18 62 16 22 84 40 105 28 14 -8 14 -9 1 -10 -13 0 -13 -1 0 -10 8 -5 10
-10 5 -10 -6 0 -11 -38 -12 -96 0 -73 2 -94 12 -90 7 2 12 -1 12 -7 -1 -7 2
-37 6 -67 18 -142 17 -171 -6 -166 -7 1 -9 1 -4 -1 14 -8 7 -53 -8 -53 -9 0
-15 -9 -15 -22 -1 -21 -2 -22 -14 -6 -12 16 -13 15 -13 -10 -1 -49 -11 -137
-18 -154 -4 -10 -11 -15 -16 -12 -5 3 -7 -9 -5 -25 2 -18 -2 -36 -11 -42 -11
-9 -12 -9 -7 4 6 17 -31 43 -40 28 -8 -13 -46 -21 -46 -9 0 5 9 12 20 15 12 3
20 14 20 25 0 16 3 18 13 9 11 -8 18 -6 32 9 10 11 15 23 12 27 -4 3 -7 2 -7
-4 0 -13 -60 -15 -80 -3 -11 7 -12 12 -4 20 9 9 14 9 18 1 9 -14 56 -15 56 -1
0 6 -14 10 -30 10 -24 0 -30 4 -28 18 2 13 -4 17 -27 19 -16 1 -22 -1 -12 -3
21 -7 22 -20 1 -28 -25 -10 -31 -7 -37 14 -3 11 -1 20 4 20 22 0 6 29 -19 35
-19 4 -32 15 -39 36 -10 25 -9 30 2 26 21 -9 25 3 8 23 -9 10 -22 16 -30 13
-20 -8 -35 18 -21 34 7 9 7 13 -1 13 -6 0 -11 -5 -11 -11 0 -6 -6 -9 -14 -6
-8 3 -17 1 -20 -6 -2 -7 -5 -4 -5 6 -1 10 -5 15 -11 12 -6 -4 -10 7 -10 27
l-1 33 -15 -25 c-14 -23 -15 -23 -11 -3 5 21 3 21 -27 8 -17 -7 -80 -27 -141
-45 -176 -51 -255 -95 -379 -215 l-106 -103 0 -511 0 -511 531 0 c505 0 531 1
518 18 -7 9 -14 18 -15 20 -1 2 -9 -5 -18 -14 -9 -9 -20 -14 -23 -10 -3 3 5
14 18 25 l24 19 -29 31 c-16 17 -34 27 -39 24 -6 -4 -8 2 -4 16 3 13 -2 30
-14 44 -10 12 -28 33 -39 47 -84 102 -166 192 -318 348 -50 52 -92 99 -92 104
0 6 10 27 21 48 17 30 37 45 94 72 l72 33 8 135 c10 158 10 199 1 260 -6 43
-5 43 5 11 6 -19 19 -46 30 -59 10 -14 19 -28 19 -33 0 -4 5 -20 11 -36 7 -15
13 -41 15 -57 4 -30 21 -49 36 -40 10 6 -1 -54 -14 -80 -7 -12 -7 -16 0 -12
12 7 22 -16 22 -48 0 -13 18 -48 40 -80 22 -31 40 -60 40 -63 0 -4 10 -17 22
-30 12 -13 19 -26 15 -29 -3 -3 -17 6 -31 21 -15 16 -26 23 -26 18 0 -6 7 -16
15 -23 23 -19 47 -73 35 -80 -6 -4 -5 -13 5 -26 11 -14 14 -15 15 -4 0 8 8 0
17 -18 9 -19 22 -31 31 -30 9 2 22 -9 30 -25 8 -16 21 -27 35 -28 12 0 16 -3
10 -6 -26 -10 -13 -25 17 -20 23 5 30 3 30 -8 0 -12 -7 -14 -26 -9 -21 6 -25
3 -22 -11 1 -10 14 -20 28 -22 34 -5 49 -21 30 -33 -13 -8 -12 -10 3 -10 9 0
17 -4 17 -10 0 -5 6 -10 13 -10 15 -1 52 -50 37 -50 -6 0 -8 -5 -5 -10 4 -6
10 -8 14 -5 5 2 26 -9 46 -25 21 -17 41 -30 45 -30 4 0 19 -18 34 -40 14 -22
21 -40 16 -40 -6 0 -9 -4 -5 -10 3 -5 13 -6 23 -3 16 6 16 5 0 -14 -23 -26
-23 -40 3 -54 14 -7 19 -17 16 -30 -5 -19 23 -19 1540 -19 l1545 0 -24 31
c-13 18 -45 55 -73 84 -41 43 -58 54 -95 60 -72 12 -80 19 -80 75 0 41 -4 52
-27 70 -48 38 -117 61 -218 75 -86 11 -114 20 -195 61 -52 26 -138 60 -190 75
-52 15 -129 40 -170 54 -41 15 -98 29 -126 32 -45 5 -54 3 -74 -18 -12 -13
-31 -43 -42 -66 l-19 -43 -47 6 c-54 7 -91 30 -110 68 -7 15 -22 32 -32 38
-17 11 -18 14 -3 47 31 73 34 93 16 114 -11 12 -16 31 -14 54 4 50 -25 76
-138 120 -53 20 -100 40 -105 44 -5 5 6 26 25 48 45 52 68 85 102 145 26 47
37 77 17 46 -6 -9 -10 -10 -10 -3 0 6 7 18 15 27 8 8 15 25 15 39 0 13 3 27 8
31 4 4 7 11 8 14 0 4 4 15 9 26 4 10 4 21 -1 25 -12 8 -17 34 -6 27 5 -3 8 29
7 72 -3 71 -2 74 9 42 8 -22 9 -42 3 -53 -5 -10 -6 -21 -3 -25 11 -11 20 9 20
46 1 20 4 42 7 47 7 10 15 44 25 100 3 17 9 46 14 65 6 19 10 43 10 54 0 15
-3 16 -15 6 -8 -7 -15 -18 -15 -24 -1 -6 -7 -24 -14 -41 -12 -27 -13 -23 -10
55 l4 85 -33 28 c-17 16 -26 25 -18 22 7 -4 17 -1 22 6 15 24 10 31 -16 25
-31 -8 -77 3 -69 15 3 6 14 7 25 4 14 -5 20 0 25 21 4 15 15 35 24 44 9 9 20
35 24 58 6 38 9 42 49 52 69 18 86 28 93 57 13 52 43 113 55 111 6 -2 19 19
29 47 14 41 22 51 48 59 23 6 32 15 32 30 1 12 3 38 6 59 5 33 3 39 -14 44
-11 2 -34 22 -51 43 -18 22 -48 45 -73 54 l-43 17 0 183 c0 170 -2 186 -20
207 -14 15 -15 21 -5 17 19 -7 20 43 3 87 -19 47 -34 113 -43 192 -6 51 -14
77 -29 92 -12 12 -21 25 -21 31 0 22 -36 90 -47 90 -9 0 -9 -9 1 -38z m-805
-902 c10 0 32 -13 50 -29 32 -28 32 -29 34 -130 1 -72 6 -102 15 -106 7 -3 11
-9 7 -14 -3 -5 -1 -12 5 -16 15 -9 12 -51 -5 -65 -8 -7 -15 -16 -15 -21 0 -14
18 -11 23 4 5 15 -1 -16 -13 -60 -5 -21 -3 -40 5 -56 18 -35 -1 -53 -65 -62
-30 -4 -59 -11 -65 -15 -5 -5 -21 -8 -35 -8 -14 0 -43 -5 -65 -12 -75 -22 -96
-23 -128 -5 -29 15 -37 16 -87 3 -30 -8 -68 -14 -85 -14 -25 1 -31 6 -33 28
-5 39 23 86 83 144 29 27 63 72 75 100 13 28 42 67 69 91 30 26 54 59 65 87
10 25 21 46 26 46 4 0 13 14 20 31 17 39 71 91 88 84 8 -3 21 -5 31 -5z m1017
-232 c-4 -18 -15 -51 -26 -73 -11 -23 -20 -48 -20 -56 0 -8 -5 -20 -12 -27 -7
-7 -9 -12 -5 -12 4 0 -1 -9 -10 -19 -9 -11 -20 -18 -25 -15 -4 3 -8 57 -8 120
l0 114 56 0 57 0 -7 -32z m-1526 -418 c0 -5 7 -10 15 -10 8 0 15 5 15 11 0 17
41 -17 61 -50 11 -18 19 -44 19 -59 -1 -23 -2 -24 -11 -9 -5 9 -20 17 -32 17
-20 -1 -20 -2 -6 -13 15 -11 15 -14 -6 -23 -13 -7 -29 -8 -38 -2 -16 9 -47
-14 -47 -34 0 -6 -3 -8 -7 -5 -3 4 -13 1 -21 -6 -13 -10 -14 -8 -8 18 l7 30
-21 -25 c-14 -17 -20 -20 -21 -10 0 10 -2 11 -6 3 -2 -7 -13 -13 -24 -13 -10
0 -19 -4 -19 -10 0 -5 -5 -10 -11 -10 -6 0 -8 7 -5 15 3 8 9 22 13 32 4 11 3
14 -5 9 -8 -5 -12 1 -12 18 0 32 32 65 95 96 28 14 52 28 53 33 5 11 22 9 22
-3z m-148 -544 c4 -6 8 -7 8 -2 0 5 6 3 14 -3 11 -9 19 -9 35 1 18 11 26 10
54 -6 98 -56 289 -99 401 -89 51 4 80 2 89 -6 8 -6 22 -9 31 -5 11 4 16 1 16
-14 0 -23 -25 -32 -92 -32 -28 0 -48 5 -51 13 -4 7 -6 6 -6 -5 -1 -20 -26 -27
-63 -17 -23 6 -28 4 -37 -19 -6 -16 -10 -20 -10 -10 -2 27 -40 33 -65 9 -12
-12 -30 -21 -39 -21 -20 0 -22 -11 -4 -29 10 -11 9 -13 -6 -8 -11 4 -16 3 -12
-3 11 -17 -5 -52 -18 -41 -20 16 -74 -13 -79 -43 -3 -14 -1 -26 5 -26 5 0 7
-11 5 -25 -4 -20 -3 -23 8 -14 10 8 14 8 14 0 0 -21 25 -11 42 17 12 19 18 22
18 10 0 -9 -11 -25 -25 -36 -30 -24 -33 -37 -4 -22 23 13 41 4 20 -9 -9 -6 -4
-8 14 -8 19 0 25 4 20 14 -3 10 -1 13 9 10 10 -4 13 -1 9 9 -4 11 -9 12 -16 5
-19 -19 -27 -12 -20 22 8 41 12 46 24 24 6 -9 17 -17 24 -17 17 0 20 -16 5
-23 -6 -3 -5 -4 2 -3 7 2 13 13 12 25 0 11 4 21 9 21 5 0 6 11 3 24 -3 14 -2
28 4 31 5 3 10 -2 11 -12 0 -16 1 -16 9 2 13 30 12 35 -7 35 -15 0 -15 2 -4 9
23 14 38 -10 33 -52 -2 -20 -8 -40 -13 -43 -5 -3 -9 -14 -9 -25 0 -11 -7 -22
-15 -25 -16 -7 -21 -54 -6 -54 5 0 16 -7 24 -15 13 -13 16 -13 21 0 3 9 -1 15
-11 15 -12 0 -13 3 -4 13 6 8 8 17 5 20 -3 3 -3 10 0 16 5 7 21 2 45 -14 l39
-24 7 22 c6 20 7 19 16 -10 6 -22 20 -37 44 -49 19 -9 32 -20 29 -25 -3 -5 -2
-14 2 -20 4 -7 12 1 20 20 8 18 18 30 24 26 14 -9 13 8 -2 23 -9 9 -4 11 23
10 22 -1 48 8 73 25 21 15 42 24 47 22 11 -8 49 17 49 32 0 6 14 17 30 25 25
11 30 19 30 48 0 27 3 31 10 20 9 -13 12 -13 21 2 9 16 11 16 27 0 12 -11 14
-20 8 -24 -7 -5 -5 -8 5 -8 9 0 22 -7 29 -15 10 -12 9 -16 -4 -21 -17 -7 -21
-34 -7 -50 5 -5 12 -29 16 -54 6 -45 6 -45 -12 -22 -15 18 -21 20 -31 10 -9
-9 -12 -9 -12 0 0 6 -7 9 -15 6 -22 -9 -18 -25 11 -58 22 -22 24 -30 13 -37
-8 -5 -15 -4 -17 1 -6 15 -32 12 -38 -5 -4 -8 -11 -12 -17 -8 -6 4 -8 -2 -5
-15 4 -12 1 -22 -4 -22 -7 0 -6 -5 1 -14 6 -7 10 -20 8 -27 -2 -8 -2 -11 0 -6
3 4 16 7 30 7 22 0 25 -4 21 -25 -3 -14 -1 -25 3 -25 5 0 9 10 10 23 1 21 1
21 9 -3 l9 -25 -2 28 c-1 15 -6 28 -12 28 -14 0 -44 61 -38 76 4 10 9 9 19 -4
11 -14 15 -15 22 -5 7 10 11 5 15 -17 4 -17 11 -31 17 -31 6 0 9 8 7 18 -3 9
-8 35 -12 57 -8 50 6 37 30 -27 11 -29 31 -58 56 -78 22 -17 37 -36 33 -41 -4
-6 -11 -5 -21 2 -12 11 -14 10 -13 -2 5 -33 -1 -60 -11 -54 -6 4 -8 12 -6 19
3 6 -2 17 -10 24 -12 12 -13 9 -8 -15 4 -15 8 -34 11 -40 2 -7 -1 -23 -6 -35
-5 -15 -9 -17 -10 -8 -1 8 -6 4 -10 -10 -8 -24 -8 -23 -9 8 -1 41 -17 34 -25
-12 -5 -26 -11 -34 -26 -33 -11 1 -20 5 -20 9 0 4 -5 8 -10 8 -6 0 -8 -11 -4
-26 5 -18 3 -25 -4 -20 -6 4 -8 -2 -5 -14 3 -11 0 -20 -6 -20 -6 0 -11 8 -11
18 -1 9 -7 28 -15 42 -13 23 -14 20 -9 -40 5 -57 4 -63 -9 -48 -20 25 -27 22
-27 -9 0 -16 -5 -35 -11 -43 -9 -12 -10 -12 -5 4 4 11 0 24 -11 33 -10 8 -12
12 -5 8 17 -9 16 45 -2 67 -20 28 -23 22 -22 -38 1 -31 -2 -58 -6 -60 -5 -3
-8 1 -8 8 0 9 -3 9 -10 -2 -11 -17 -15 39 -11 147 3 56 1 63 -23 78 -14 10
-26 24 -26 31 0 25 -19 15 -26 -13 -10 -49 -26 -83 -36 -77 -5 3 -5 11 1 18
12 14 4 29 -10 20 -16 -10 -9 -43 12 -57 13 -9 16 -17 10 -22 -6 -3 -11 -17
-11 -31 0 -15 4 -23 10 -19 6 4 8 10 6 13 -2 4 4 32 15 62 18 50 19 52 18 20
-1 -19 -1 -46 0 -60 1 -22 3 -23 12 -7 5 9 7 22 4 28 -4 5 -1 16 5 24 6 8 9
19 5 25 -3 5 0 10 8 10 9 0 14 -12 14 -37 0 -21 -2 -30 -4 -20 -2 9 -9 17 -14
17 -6 0 -6 -7 -1 -17 11 -21 5 -73 -9 -88 -12 -12 -12 -48 1 -40 6 3 10 2 10
-4 0 -5 -4 -13 -10 -16 -5 -3 -10 -14 -10 -24 0 -11 -9 -29 -21 -42 l-21 -24
14 25 c10 18 13 48 10 107 -5 99 -18 102 -19 6 -1 -37 -6 -79 -12 -93 -9 -23
-10 -21 -10 18 -1 50 -17 55 -30 10 -6 -23 -9 -27 -10 -12 -1 12 6 39 15 59
15 37 15 60 -1 99 -6 14 -5 17 3 12 16 -10 14 4 -4 34 -14 23 -15 23 -11 3 3
-12 -1 -27 -8 -33 -8 -6 -13 -17 -11 -23 1 -7 1 -9 -1 -4 -3 4 -13 7 -23 7
-20 0 -30 26 -30 80 0 31 -1 33 -16 18 -13 -13 -14 -20 -4 -38 6 -12 9 -24 6
-27 -5 -6 -26 40 -26 58 0 5 -4 9 -10 9 -5 0 -10 -9 -10 -20 0 -11 -3 -20 -7
-20 -13 0 -43 -61 -36 -72 3 -7 1 -8 -5 -4 -8 5 -12 -5 -12 -33 0 -23 -4 -41
-9 -41 -5 0 -9 15 -9 33 0 17 -3 51 -7 74 -8 45 -1 78 14 68 6 -3 6 -17 -1
-35 -16 -47 -4 -57 24 -19 25 34 47 96 30 85 -5 -3 -7 7 -4 22 l5 27 -20 -22
c-31 -35 -48 -27 -19 8 14 17 26 42 26 55 0 17 4 23 12 18 6 -4 8 -3 4 4 -3 5
0 12 6 15 10 4 11 7 1 18 -11 11 -13 10 -13 -4 0 -9 -4 -17 -9 -17 -13 0 -82
-131 -75 -142 3 -4 0 -8 -5 -8 -16 0 -13 47 2 53 18 7 45 89 30 94 -6 2 -8 13
-5 25 l5 21 -21 -21 c-22 -22 -29 -38 -13 -27 5 3 13 0 17 -6 4 -7 3 -9 -3 -6
-15 9 -53 -22 -53 -44 0 -10 -5 -19 -11 -19 -7 0 -9 -10 -5 -24 3 -14 1 -28
-4 -31 -6 -4 -8 -15 -5 -25 6 -19 -16 -23 -32 -5 -4 4 -2 5 4 1 9 -5 11 -2 7
8 -5 13 -8 13 -20 1 -8 -7 -14 -23 -14 -34 0 -11 -4 -23 -10 -26 -5 -3 -10 1
-10 9 0 9 -5 16 -11 16 -10 0 -6 76 7 122 4 13 -3 16 -30 16 l-34 0 2 -51 c1
-29 6 -58 10 -66 7 -11 5 -13 -7 -8 -16 6 -20 -2 -20 -38 0 -6 -6 -16 -13 -23
-9 -8 -14 -9 -14 -2 0 6 -4 8 -10 5 -5 -3 -10 -15 -10 -25 0 -10 -5 -20 -11
-22 -12 -4 -18 -31 -25 -108 l-4 -45 14 30 c8 17 15 24 15 17 1 -19 -18 -52
-29 -52 -6 0 -10 8 -10 18 0 15 -2 15 -11 2 -8 -11 -9 -3 -6 32 2 26 1 45 -4
42 -5 -3 -9 0 -9 5 0 6 5 11 10 11 6 0 10 13 10 29 0 32 -36 121 -49 121 -16
0 -20 -28 -5 -34 10 -4 11 -11 4 -31 -5 -13 -7 -32 -4 -40 4 -8 2 -15 -3 -15
-13 0 -36 77 -27 91 4 8 0 7 -15 0 -11 -6 -26 -21 -32 -34 -12 -21 -12 -21
-20 -2 -6 16 -8 14 -8 -11 -1 -24 -5 -30 -21 -29 -38 3 -37 10 8 60 18 20 29
80 12 70 -9 -6 -11 0 -5 23 7 36 -7 76 -18 48 -4 -9 -2 -16 3 -16 6 0 10 -4
10 -10 0 -5 -6 -10 -14 -10 -8 0 -17 -6 -20 -12 -3 -7 -3 -3 0 10 8 34 -5 26
-22 -14 -9 -23 -20 -34 -29 -31 -8 4 -15 -3 -19 -16 -3 -12 -8 -18 -12 -14 -4
3 3 21 16 39 12 18 19 25 16 15 -3 -10 -2 -16 3 -13 10 7 24 60 25 98 1 15 9
36 18 47 20 23 41 61 34 61 -3 0 -15 -10 -27 -23 -12 -12 -19 -17 -15 -10 3 6
-1 13 -11 16 -15 3 -14 6 7 14 33 14 69 53 49 53 -8 1 -3 7 11 15 19 11 21 14
8 15 -10 0 -18 4 -18 10 0 5 7 7 15 4 8 -4 15 -1 15 5 0 6 -7 11 -15 11 -8 0
-15 7 -15 16 0 14 -2 15 -17 3 -9 -8 -18 -13 -20 -11 -11 8 -23 -1 -23 -18 0
-13 -7 -20 -19 -20 -10 0 -30 -11 -45 -25 -20 -19 -25 -30 -20 -50 4 -18 2
-25 -9 -25 -8 0 -17 -7 -21 -15 -3 -8 -1 -15 4 -15 6 0 10 6 10 13 0 8 3 7 10
-3 8 -13 11 -13 22 -1 10 10 10 12 1 7 -15 -8 -16 -5 -7 18 3 9 10 16 16 16 5
0 6 -5 2 -11 -3 -6 -1 -15 5 -19 9 -5 9 -11 -3 -23 -9 -8 -16 -19 -16 -24 0
-4 -9 -14 -20 -21 -24 -14 -26 -5 -5 18 14 15 13 17 -7 16 -33 -1 -37 37 -6
52 18 8 19 11 6 11 -16 1 -16 4 2 36 l20 35 -25 -16 c-20 -13 -31 -14 -48 -6
-21 10 -21 11 11 17 25 6 32 13 32 31 0 17 4 22 15 18 12 -5 13 -9 4 -20 -9
-12 -9 -13 4 -8 8 3 18 12 21 20 3 8 2 12 -3 9 -5 -3 -12 -2 -15 3 -2 4 7 9
20 10 22 2 23 0 13 -19 -12 -23 -3 -41 10 -20 5 8 14 10 21 6 9 -5 11 -4 6 3
-4 7 6 26 23 44 20 22 26 35 19 39 -14 9 -51 -9 -43 -20 2 -5 -4 -11 -15 -14
-21 -5 -28 9 -8 15 22 8 -4 30 -29 25 -15 -3 -22 0 -20 7 2 6 15 10 28 8 44
-6 64 -4 94 9 23 9 26 13 13 16 -10 3 -18 12 -18 21 0 14 2 14 9 3 7 -11 12
-3 21 29 6 24 9 51 7 61 -3 11 -1 21 3 24 5 3 5 19 0 36 -13 44 8 85 52 101
13 5 15 15 11 47 -5 39 -5 40 28 44 41 4 71 -2 81 -17z"/>
</g>
</svg>
